<?xml version="1.0" encoding="utf-8"?>
<!-- Generator: Adobe Illustrator 25.0.0, SVG Export Plug-In . SVG Version: 6.00 Build 0)  -->
<svg version="1.1" id="Layer_1" xmlns="http://www.w3.org/2000/svg" xmlns:xlink="http://www.w3.org/1999/xlink" x="0px" y="0px"
	 viewBox="0 0 595.3 841.9" style="enable-background:new 0 0 595.3 841.9;" xml:space="preserve">
<style type="text/css">
	.st0{fill:url(#SVGID_1_);}
	.st1{fill:url(#SVGID_2_);}
	.st2{fill:url(#SVGID_3_);}
	.st3{fill:url(#SVGID_4_);}
	.st4{fill:url(#SVGID_5_);}
</style>
<linearGradient id="SVGID_1_" gradientUnits="userSpaceOnUse" x1="126.3" y1="443.5273" x2="482.2" y2="443.5273" gradientTransform="matrix(1 0 0 -1 0 841.8898)">
	<stop  offset="0" style="stop-color:#054E28"/>
	<stop  offset="1" style="stop-color:#054C29"/>
</linearGradient>
<path class="st0" d="M311.6,595l36.7-20c82.5-44.9,133.9-131.9,133.9-226.6v-95.6c0-7.4-5.8-13.6-13.2-13.8
	c-86.8-2.4-140.6-27.7-158.3-37.5c-4-2.2-8.9-2.2-12.9,0c-17.7,9.8-71.6,35.1-158.3,37.5c-7.4,0.2-13.2,6.4-13.2,13.8v95.6
	c0,94.7,51.4,181.7,133.9,226.6l36.7,20C301.5,597.5,307,597.5,311.6,595z"/>
<linearGradient id="SVGID_2_" gradientUnits="userSpaceOnUse" x1="143.9" y1="397.85" x2="464.7" y2="397.85">
	<stop  offset="1.353259e-06" style="stop-color:#042315"/>
	<stop  offset="1" style="stop-color:#03261D"/>
</linearGradient>
<path class="st1" d="M464.7,264.1v81.1c0,90.3-48.8,173-127.4,215.7l-26,14.2c-2.2,1.2-4.6,1.8-7,1.8s-4.8-0.6-7-1.8l-26-14.2
	c-78.6-42.8-127.4-125.4-127.4-215.7v-81.1c0-3.8,3-7,6.9-7.3c73.9-5,124.7-24.6,150.4-37.2c1-0.5,2.1-0.8,3.2-0.8s2.2,0.2,3.2,0.8
	c25.7,12.5,76.5,32.1,150.4,37.2C461.6,257.1,464.7,260.2,464.7,264.1z"/>
<linearGradient id="SVGID_3_" gradientUnits="userSpaceOnUse" x1="304.3" y1="397.9" x2="464.7" y2="397.9">
	<stop  offset="1.353259e-06" style="stop-color:#042315"/>
	<stop  offset="1" style="stop-color:#03261D"/>
</linearGradient>
<path class="st2" d="M464.7,264.1v81.1c0,90.3-48.8,173-127.4,215.7l-26,14.2c-2.2,1.2-4.6,1.8-7,1.8v-358c1.1,0,2.2,0.2,3.2,0.8
	c25.7,12.5,76.5,32.1,150.4,37.2C461.6,257.1,464.7,260.2,464.7,264.1z"/>
<linearGradient id="SVGID_4_" gradientUnits="userSpaceOnUse" x1="270.3" y1="523.9476" x2="339.8" y2="523.9476" gradientTransform="matrix(1 0 0 -1 0 841.8898)">
	<stop  offset="0" style="stop-color:#019800"/>
	<stop  offset="1" style="stop-color:#063D31"/>
</linearGradient>
<path class="st3" d="M339.8,324.6v12.2c0,4.2-3.4,7.5-7.5,7.5l0,0c-4.2,0-7.5-3.4-7.5-7.5V325c0-10.7-8.3-19.8-19-20.2
	c-11.2-0.4-20.5,8.6-20.5,19.7v21.6h-15v-21c0-18.9,14.9-34.8,33.9-35.3c10-0.3,19,3.7,25.5,10.2C335.9,306.3,339.8,315,339.8,324.6
	z"/>
<linearGradient id="SVGID_5_" gradientUnits="userSpaceOnUse" x1="249.1" y1="433.8898" x2="359.9" y2="433.8898" gradientTransform="matrix(1 0 0 -1 0 841.8898)">
	<stop  offset="0" style="stop-color:#01B200"/>
	<stop  offset="1" style="stop-color:#064B31"/>
</linearGradient>
<path class="st4" d="M343.7,368.8c-10-10-23.9-16.2-39.2-16.2c-15.3,0-29.2,6.2-39.2,16.2s-16.2,23.9-16.2,39.2
	c0,30.6,24.8,55.4,55.4,55.4c15.3,0,29.2-6.2,39.2-16.2s16.2-23.9,16.2-39.2C359.9,392.7,353.7,378.9,343.7,368.8z M311.4,413.3
	l1.9,11.6c0.3,1.8-1.1,3.5-3,3.5h-11.6c-1.9,0-3.3-1.7-2.9-3.5l2-11.5c-4.1-2.4-6.9-6.8-6.9-11.9c0-7.6,6.1-13.7,13.7-13.7
	s13.7,6.1,13.7,13.7C318.2,406.5,315.4,410.9,311.4,413.3z"/>
</svg>
